<mxfile host="app.diagrams.net" modified="2020-11-09T11:13:20.548Z" agent="5.0 (Windows NT 10.0; Win64; x64) AppleWebKit/537.36 (KHTML, like Gecko) Chrome/86.0.4240.111 Safari/537.36" etag="CZTMKqCXbrLfXExNd5D1" version="13.8.5" type="github">
  <diagram id="0jzu83yzt9LRqhIuGKfN" name="Page-1">
    <mxGraphModel dx="2249" dy="762" grid="1" gridSize="10" guides="1" tooltips="1" connect="1" arrows="1" fold="1" page="1" pageScale="1" pageWidth="827" pageHeight="1169" math="0" shadow="0">
      <root>
        <mxCell id="0" />
        <mxCell id="1" parent="0" />
        <mxCell id="A8WNq-k4kn0p34Sj4owe-3" style="edgeStyle=orthogonalEdgeStyle;rounded=0;orthogonalLoop=1;jettySize=auto;html=1;exitX=0.5;exitY=1;exitDx=0;exitDy=0;entryX=0.5;entryY=0;entryDx=0;entryDy=0;" edge="1" parent="1" source="A8WNq-k4kn0p34Sj4owe-1" target="A8WNq-k4kn0p34Sj4owe-2">
          <mxGeometry relative="1" as="geometry" />
        </mxCell>
        <mxCell id="A8WNq-k4kn0p34Sj4owe-8" style="edgeStyle=orthogonalEdgeStyle;rounded=0;orthogonalLoop=1;jettySize=auto;html=1;entryX=1;entryY=0.5;entryDx=0;entryDy=0;" edge="1" parent="1" source="A8WNq-k4kn0p34Sj4owe-1" target="A8WNq-k4kn0p34Sj4owe-7">
          <mxGeometry relative="1" as="geometry" />
        </mxCell>
        <mxCell id="A8WNq-k4kn0p34Sj4owe-1" value="Sind die Daten &lt;br&gt;strukturiert?" style="rhombus;whiteSpace=wrap;html=1;fillColor=#FF8000;" vertex="1" parent="1">
          <mxGeometry x="310" y="10" width="130" height="90" as="geometry" />
        </mxCell>
        <mxCell id="A8WNq-k4kn0p34Sj4owe-6" value="" style="edgeStyle=orthogonalEdgeStyle;rounded=0;orthogonalLoop=1;jettySize=auto;html=1;" edge="1" parent="1" source="A8WNq-k4kn0p34Sj4owe-2" target="A8WNq-k4kn0p34Sj4owe-4">
          <mxGeometry relative="1" as="geometry" />
        </mxCell>
        <mxCell id="A8WNq-k4kn0p34Sj4owe-2" value="&lt;font color=&quot;#ffffff&quot;&gt;Ja&lt;/font&gt;" style="ellipse;whiteSpace=wrap;html=1;aspect=fixed;fillColor=#009900;" vertex="1" parent="1">
          <mxGeometry x="353" y="140" width="44" height="44" as="geometry" />
        </mxCell>
        <mxCell id="A8WNq-k4kn0p34Sj4owe-4" value="Art der Anwendung?&lt;br&gt;Analytik" style="rhombus;whiteSpace=wrap;html=1;fillColor=#FF8000;" vertex="1" parent="1">
          <mxGeometry x="305" y="210" width="140" height="90" as="geometry" />
        </mxCell>
        <mxCell id="A8WNq-k4kn0p34Sj4owe-10" style="edgeStyle=orthogonalEdgeStyle;rounded=0;orthogonalLoop=1;jettySize=auto;html=1;entryX=0.5;entryY=0;entryDx=0;entryDy=0;" edge="1" parent="1" source="A8WNq-k4kn0p34Sj4owe-7" target="A8WNq-k4kn0p34Sj4owe-9">
          <mxGeometry relative="1" as="geometry" />
        </mxCell>
        <mxCell id="A8WNq-k4kn0p34Sj4owe-7" value="&lt;font color=&quot;#ffffff&quot;&gt;Nein&lt;/font&gt;" style="ellipse;whiteSpace=wrap;html=1;aspect=fixed;fillColor=#EB3B17;" vertex="1" parent="1">
          <mxGeometry x="210" y="33" width="44" height="44" as="geometry" />
        </mxCell>
        <mxCell id="A8WNq-k4kn0p34Sj4owe-13" style="edgeStyle=orthogonalEdgeStyle;rounded=0;orthogonalLoop=1;jettySize=auto;html=1;" edge="1" parent="1" source="A8WNq-k4kn0p34Sj4owe-9" target="A8WNq-k4kn0p34Sj4owe-12">
          <mxGeometry relative="1" as="geometry" />
        </mxCell>
        <mxCell id="A8WNq-k4kn0p34Sj4owe-14" style="edgeStyle=orthogonalEdgeStyle;rounded=0;orthogonalLoop=1;jettySize=auto;html=1;" edge="1" parent="1" source="A8WNq-k4kn0p34Sj4owe-9" target="A8WNq-k4kn0p34Sj4owe-11">
          <mxGeometry relative="1" as="geometry" />
        </mxCell>
        <mxCell id="A8WNq-k4kn0p34Sj4owe-9" value="Brauchen Sie &lt;br&gt;Mobile SDKs?" style="rhombus;whiteSpace=wrap;html=1;fillColor=#FF8000;" vertex="1" parent="1">
          <mxGeometry x="50" y="100" width="130" height="90" as="geometry" />
        </mxCell>
        <mxCell id="A8WNq-k4kn0p34Sj4owe-17" style="edgeStyle=orthogonalEdgeStyle;rounded=0;orthogonalLoop=1;jettySize=auto;html=1;entryX=0.5;entryY=0;entryDx=0;entryDy=0;" edge="1" parent="1" source="A8WNq-k4kn0p34Sj4owe-11">
          <mxGeometry relative="1" as="geometry">
            <mxPoint x="42" y="300" as="targetPoint" />
          </mxGeometry>
        </mxCell>
        <mxCell id="A8WNq-k4kn0p34Sj4owe-11" value="&lt;font color=&quot;#ffffff&quot;&gt;Ja&lt;/font&gt;" style="ellipse;whiteSpace=wrap;html=1;aspect=fixed;fillColor=#009900;" vertex="1" parent="1">
          <mxGeometry x="20" y="233" width="44" height="44" as="geometry" />
        </mxCell>
        <mxCell id="A8WNq-k4kn0p34Sj4owe-12" value="&lt;font color=&quot;#ffffff&quot;&gt;Nein&lt;/font&gt;" style="ellipse;whiteSpace=wrap;html=1;aspect=fixed;fillColor=#EB3B17;" vertex="1" parent="1">
          <mxGeometry x="166" y="233" width="44" height="44" as="geometry" />
        </mxCell>
        <mxCell id="A8WNq-k4kn0p34Sj4owe-18" value="" style="strokeColor=#dddddd;shadow=1;strokeWidth=1;rounded=1;absoluteArcSize=1;arcSize=2;fillColor=#FFFFFF;" vertex="1" parent="1">
          <mxGeometry x="133" y="300" width="110" height="60" as="geometry" />
        </mxCell>
        <mxCell id="A8WNq-k4kn0p34Sj4owe-19" value="Cloud&#xa;Storage" style="dashed=0;connectable=0;html=1;fillColor=#5184F3;strokeColor=none;shape=mxgraph.gcp2.hexIcon;prIcon=cloud_storage;part=1;labelPosition=right;verticalLabelPosition=middle;align=left;verticalAlign=middle;spacingLeft=5;fontColor=#999999;fontSize=12;" vertex="1" parent="A8WNq-k4kn0p34Sj4owe-18">
          <mxGeometry y="0.5" width="44" height="39" relative="1" as="geometry">
            <mxPoint x="5" y="-19.5" as="offset" />
          </mxGeometry>
        </mxCell>
        <mxCell id="A8WNq-k4kn0p34Sj4owe-20" value="" style="strokeColor=#dddddd;shadow=1;strokeWidth=1;rounded=1;absoluteArcSize=1;arcSize=2;fillColor=#FFFFFF;" vertex="1" parent="1">
          <mxGeometry x="-24" y="300" width="132" height="60" as="geometry" />
        </mxCell>
        <mxCell id="A8WNq-k4kn0p34Sj4owe-21" value="Cloud Storage&amp;nbsp;&lt;br&gt;FÃ¼r Firebase" style="dashed=0;connectable=0;html=1;fillColor=#5184F3;strokeColor=none;shape=mxgraph.gcp2.firebase;part=1;labelPosition=right;verticalLabelPosition=middle;align=left;verticalAlign=middle;spacingLeft=5;fontColor=#999999;fontSize=12;" vertex="1" parent="A8WNq-k4kn0p34Sj4owe-20">
          <mxGeometry width="32.4" height="45" relative="1" as="geometry">
            <mxPoint x="5" y="7" as="offset" />
          </mxGeometry>
        </mxCell>
      </root>
    </mxGraphModel>
  </diagram>
</mxfile>
